<svg xmlns="http://www.w3.org/2000/svg" width="66" height="90" fill="none" viewBox="0 0 66 90">
  <g clip-path="url(#a)">
    <path fill="#EBF5F0" d="M.901 57.59c0 8.45 3.382 16.553 9.402 22.528A32.222 32.222 0 0 0 33 89.448a32.222 32.222 0 0 0 22.697-9.33A31.738 31.738 0 0 0 65.1 57.59c0-8.45-3.382-16.553-9.402-22.528A32.222 32.222 0 0 0 33 25.733a32.222 32.222 0 0 0-22.697 9.33A31.738 31.738 0 0 0 .9 57.59Z"/>
    <path fill="#fff" d="M44.338 19.236c-1.847-4.665-1.557-3.761-1.622-4.618-.086-2.638-1.233-5.14-3.196-6.976-1.963-1.836-4.59-2.863-7.323-2.863-2.733 0-5.359 1.027-7.322 2.863s-3.11 4.338-3.196 6.976c-.065.857.225-.047-1.622 4.618a6.935 6.935 0 0 0-.21 3.114 7.028 7.028 0 0 0 1.18 2.905 7.325 7.325 0 0 0 2.347 2.146 7.61 7.61 0 0 0 3.068.981c1.937.186 3.855.283 5.756.29 1.9-.01 3.818-.107 5.755-.29a7.61 7.61 0 0 0 3.068-.981 7.325 7.325 0 0 0 2.346-2.146 7.028 7.028 0 0 0 1.18-2.905 6.935 6.935 0 0 0-.209-3.114Z"/>
    <path stroke="#2A343A" strokeLinecap="round" strokeLinejoin="round" strokeWidth=".75" d="M44.338 19.236c-1.847-4.665-1.557-3.761-1.622-4.618-.086-2.638-1.233-5.14-3.196-6.976-1.963-1.836-4.59-2.863-7.323-2.863-2.733 0-5.359 1.027-7.322 2.863s-3.11 4.338-3.196 6.976c-.065.857.225-.047-1.622 4.618a6.935 6.935 0 0 0-.21 3.114 7.028 7.028 0 0 0 1.18 2.905 7.325 7.325 0 0 0 2.347 2.146 7.61 7.61 0 0 0 3.068.981c1.937.186 3.855.283 5.756.29 1.9-.01 3.818-.107 5.755-.29a7.61 7.61 0 0 0 3.068-.981 7.325 7.325 0 0 0 2.346-2.146 7.028 7.028 0 0 0 1.18-2.905 6.935 6.935 0 0 0-.209-3.114v0Z"/>
    <path fill="#C2E0D3" stroke="#2A343A" strokeLinecap="round" strokeLinejoin="round" strokeWidth=".75" d="M24.574 50.973h16.852V62.92H24.574V50.973Z"/>
    <path fill="#C2E0D3" d="M52.444 58.714a3.376 3.376 0 0 1-.076 2.566 3.34 3.34 0 0 1-1.856 1.76l-16.35 6.252-2.366-6.272 16.35-6.253a3.313 3.313 0 0 1 3.608.837c.3.32.535.698.69 1.11Z"/>
    <path stroke="#2A343A" strokeLinecap="round" strokeLinejoin="round" strokeWidth=".75" d="M52.444 58.714a3.376 3.376 0 0 1-.076 2.566 3.34 3.34 0 0 1-1.856 1.76l-16.35 6.252-2.366-6.272 16.35-6.253a3.313 3.313 0 0 1 3.608.837c.3.32.535.698.69 1.11v0Z"/>
    <path fill="#C2E0D3" d="M13.556 58.712a3.376 3.376 0 0 0 .83 3.633c.319.302.693.538 1.102.695l16.35 6.252 2.366-6.273-16.35-6.252a3.309 3.309 0 0 0-3.608.836c-.3.32-.534.698-.69 1.11Z"/>
    <path stroke="#2A343A" strokeLinecap="round" strokeLinejoin="round" strokeWidth=".75" d="M13.556 58.712a3.376 3.376 0 0 0 .83 3.633c.319.302.693.538 1.102.695l16.35 6.252 2.366-6.273-16.35-6.252a3.309 3.309 0 0 0-3.608.836c-.3.32-.534.698-.69 1.11v0Z"/>
    <path fill="#fff" stroke="#2A343A" strokeLinecap="round" strokeLinejoin="round" strokeWidth=".75" d="M60.094 48.574c.154.019.311.012.462-.02.151-.033.293-.09.418-.168a1.08 1.08 0 0 0 .31-.289.894.894 0 0 0 .154-.365c.185-1.093-.154-2.203-.943-3.086-.79-.884-1.966-1.469-3.27-1.627a1.41 1.41 0 0 0-.462.02c-.15.033-.293.09-.417.168a1.08 1.08 0 0 0-.31.289.893.893 0 0 0-.154.365.838.838 0 0 0 .025.388.936.936 0 0 0 .2.35c.093.104.21.192.344.259.134.066.283.11.437.129.681.082 1.295.388 1.708.85.412.461.589 1.041.491 1.612a.877.877 0 0 0 .226.737c.188.21.47.35.78.388Z"/>
    <path fill="#fff" d="M47.04 42.005c0-9.437-7.016-14.136-14.034-14.129h-.015c-7.018-.007-14.035 4.692-14.035 14.129v1.819h5.439l-.904 11.858c4.573.379 8.711-.764 9.51-3.639.797 2.873 4.936 4.016 9.509 3.639l-.904-11.858h5.437l-.003-1.82Z"/>
    <path stroke="#2A343A" strokeLinecap="round" strokeLinejoin="round" strokeWidth=".75" d="M47.04 42.005c0-9.437-7.016-14.136-14.034-14.129h-.015c-7.018-.007-14.035 4.692-14.035 14.129v1.819h5.439l-.904 11.858c4.573.379 8.711-.764 9.51-3.639.797 2.873 4.936 4.016 9.509 3.639l-.904-11.858h5.437l-.003-1.82ZM24.574 43.805v-4.778M41.426 43.805v-4.778"/>
    <path fill="#fff" d="M36.61 27.303v-1.816H29.39v1.816c.346 2.36 1.625 4.538 3.61 6.148 1.986-1.61 3.265-3.787 3.612-6.148Z"/>
    <path stroke="#2A343A" strokeLinecap="round" strokeLinejoin="round" strokeWidth=".99" d="M36.61 27.303v-1.816H29.39v1.816c.346 2.36 1.625 4.538 3.61 6.148 1.986-1.61 3.265-3.787 3.612-6.148v0Z"/>
    <path fill="#C2E0D3" stroke="#2A343A" strokeLinecap="round" strokeLinejoin="round" strokeWidth=".75" d="m32.599 33.42-.059.052a2.967 2.967 0 0 1-1.324.708c-.48.11-.975.086-1.447-.07a3.087 3.087 0 0 1-1.274-.833 3.967 3.967 0 0 1-.843-1.427 58.321 58.321 0 0 1-.622-1.918 1.123 1.123 0 0 1 0-.65.91.91 0 0 1 .348-.494l2.508-1.708c.26 2.434 1.221 4.68 2.713 6.34ZM32.599 33.419l.067.053c.447.355.965.597 1.514.707.548.111 1.114.087 1.652-.07a3.608 3.608 0 0 0 1.456-.832c.42-.392.748-.88.963-1.428.294-.747.543-1.43.712-1.917a.99.99 0 0 0 0-.65.922.922 0 0 0-.398-.494L35.7 27.08c-.298 2.434-1.397 4.68-3.101 6.339Z"/>
    <path fill="#fff" stroke="#2A343A" strokeLinecap="round" strokeLinejoin="round" strokeWidth=".75" d="M64.155 46.79a1.18 1.18 0 0 0 .396-.405 1.066 1.066 0 0 0 .011-1.057 1.174 1.174 0 0 0-.387-.411 1.468 1.468 0 0 0-1.314-.133c-3.882 3.335-6.62 2.193-6.716 2.089-1.095-1.147.59-1.642.268-2.404-.268-.634-2.324-.848-2.702 1.024l-.322 1.6a1.882 1.882 0 0 1-.402.828 2.1 2.1 0 0 1-.765.574 8.344 8.344 0 0 1-3.44.889 3.275 3.275 0 0 1-2.114-.844 2.78 2.78 0 0 1-.916-1.944v-2.79h-4.326v2.975c.035 1.767.828 3.45 2.205 4.683 1.378 1.232 3.23 1.915 5.151 1.898 4.112 0 6.54-2.984 7.593-3.327 4.01 0 6.254-2.29 7.78-3.245ZM5.906 48.574a1.41 1.41 0 0 1-.462-.02 1.297 1.297 0 0 1-.418-.168 1.08 1.08 0 0 1-.31-.289.894.894 0 0 1-.154-.365c-.186-1.093.153-2.203.943-3.087.79-.883 1.965-1.468 3.27-1.626a1.41 1.41 0 0 1 .462.02c.15.033.292.09.417.168.125.078.23.176.31.289.079.112.131.236.153.365.023.13.014.261-.024.388a.936.936 0 0 1-.2.35c-.094.104-.21.192-.345.259-.134.066-.282.11-.436.129-.681.083-1.295.389-1.707.85-.412.462-.589 1.041-.492 1.612.023.13.014.261-.025.388a.935.935 0 0 1-.2.35 1.14 1.14 0 0 1-.345.258c-.134.067-.283.11-.437.129Z"/>
    <path fill="#fff" stroke="#2A343A" strokeLinecap="round" strokeLinejoin="round" strokeWidth=".75" d="M1.845 46.79a1.18 1.18 0 0 1-.396-.405 1.067 1.067 0 0 1-.011-1.057c.09-.163.223-.305.386-.411a1.468 1.468 0 0 1 1.314-.133c3.882 3.335 6.62 2.193 6.716 2.089 1.094-1.147-.591-1.642-.268-2.404.269-.634 2.323-.848 2.701 1.024l.326 1.597c.062.301.2.585.402.829a2.1 2.1 0 0 0 .765.573 8.342 8.342 0 0 0 3.438.89 3.274 3.274 0 0 0 2.113-.844 2.78 2.78 0 0 0 .917-1.942v-2.79h4.326v2.975c-.035 1.767-.828 3.45-2.205 4.683-1.378 1.232-3.229 1.915-5.15 1.898-4.112 0-6.54-2.984-7.593-3.327-4.015 0-6.255-2.29-7.781-3.245Z"/>
    <path fill="#C2E0D3" stroke="#2A343A" strokeLinecap="round" strokeLinejoin="round" strokeWidth=".75" d="M29.389 41.416h7.222v7.168h-7.222v-7.168Z"/>
    <path fill="#fff" stroke="#2A343A" strokeLinejoin="round" strokeWidth=".75" d="M31.796 43.805h2.408v3.186h-2.408v-3.186Z"/>
    <path stroke="#2A343A" strokeLinecap="round" strokeLinejoin="round" strokeWidth=".75" d="m35.006 34.248-2.407 7.168M30.994 34.248l2.407 7.168"/>
    <path fill="#fff" stroke="#2A343A" strokeLinecap="round" strokeLinejoin="round" strokeWidth=".75" d="M41.355 16.75a24.968 24.968 0 0 1-12.46-6.396c-.669 4.028-1.813 6.727-4.254 6.397-.443 0-.869.174-1.182.484a1.643 1.643 0 0 0 0 2.337c.313.31.739.484 1.182.484.034 0 .068-.009.102-.01a8.225 8.225 0 0 0 2.806 5.032A8.406 8.406 0 0 0 33 27.08c2.001 0 3.936-.71 5.451-2.002a8.224 8.224 0 0 0 2.806-5.032c.035 0 .068.01.103.01.444 0 .869-.175 1.182-.484a1.643 1.643 0 0 0 0-2.337 1.682 1.682 0 0 0-1.182-.484h-.005Z"/>
    <path fill="#C2E0D3" d="M26.981 20.31c0 .317.085.62.235.845.151.224.355.35.568.35.213 0 .417-.126.567-.35.15-.225.235-.528.235-.845 0-.317-.084-.621-.235-.845-.15-.224-.354-.35-.567-.35-.213 0-.417.126-.567.35-.151.224-.236.528-.236.845ZM36.61 20.31c0 .317.128.62.353.845a1.208 1.208 0 0 0 1.703 0 1.19 1.19 0 0 0 0-1.69 1.208 1.208 0 0 0-1.703 0 1.19 1.19 0 0 0-.352.845Z"/>
    <path stroke="#2A343A" strokeLinecap="round" strokeLinejoin="round" strokeWidth=".75" d="M30.191 17.522c-.1-.472-.266-.875-.48-1.158-.215-.284-.466-.435-.724-.435-.257 0-.508.151-.723.435-.214.283-.381.686-.48 1.158M37.414 17.522c-.1-.472-.267-.875-.48-1.158-.215-.284-.467-.435-.724-.435-.257 0-.509.151-.723.435-.214.283-.381.686-.48 1.158"/>
    <path fill="#fff" stroke="#2A343A" strokeLinecap="round" strokeLinejoin="round" strokeWidth=".99" d="M29.389 22.3c2.186 2.125 5.035 2.125 7.222 0h-7.222Z"/>
    <path fill="#C2E0D3" stroke="#2A343A" strokeLinecap="round" strokeLinejoin="round" strokeWidth=".75" d="M23.772 20.708h-1.205a.363.363 0 0 1-.153-.034.401.401 0 0 1-.13-.097.492.492 0 0 1-.117-.317v-6.273a.493.493 0 0 1 .117-.316.4.4 0 0 1 .13-.097.363.363 0 0 1 .153-.034h1.205c.213 0 .417.094.567.262a.95.95 0 0 1 .235.632v5.377c0 .118-.02.235-.06.343a.909.909 0 0 1-.174.291.803.803 0 0 1-.26.195.731.731 0 0 1-.308.068Z"/>
    <path fill="#fff" stroke="#2A343A" strokeLinecap="round" strokeLinejoin="round" strokeWidth=".75" d="M20.026 19.912h2.14v-5.576h-2.14c-.283 0-.555.098-.756.272a.87.87 0 0 0-.313.656v3.716a.82.82 0 0 0 .08.356.929.929 0 0 0 .231.302c.1.087.218.156.348.202.13.047.27.072.41.072Z"/>
    <path fill="#C2E0D3" stroke="#2A343A" strokeLinecap="round" strokeLinejoin="round" strokeWidth=".75" d="M42.227 20.708h1.205a.38.38 0 0 0 .284-.131.474.474 0 0 0 .117-.316v-6.274a.475.475 0 0 0-.117-.316.38.38 0 0 0-.284-.131h-1.205a.762.762 0 0 0-.566.262.95.95 0 0 0-.235.632v5.377c0 .118.02.235.06.343.04.11.1.208.174.291.074.084.163.15.26.195a.731.731 0 0 0 .307.068Z"/>
    <path fill="#fff" stroke="#2A343A" strokeLinecap="round" strokeLinejoin="round" strokeWidth=".75" d="M47.043 18.984a.87.87 0 0 1-.313.656c-.2.174-.473.271-.757.271h-2.14v-5.575h2.14c.284 0 .556.098.757.272.2.174.313.41.313.656v3.72ZM44.636 14.336a11.452 11.452 0 0 0-3.445-8.073A11.7 11.7 0 0 0 33 2.928a11.701 11.701 0 0 0-8.192 3.335 11.452 11.452 0 0 0-3.445 8.073v-2.132a11.452 11.452 0 0 1 3.445-8.072A11.701 11.701 0 0 1 33 .796a11.7 11.7 0 0 1 8.19 3.336 11.452 11.452 0 0 1 3.446 8.072v2.132Z"/>
    <path fill="#C2E0D3" stroke="#2A343A" strokeLinecap="round" strokeLinejoin="round" strokeWidth=".75" d="M28.587 26.283h-1.605a.806.806 0 0 1-.568-.233.794.794 0 0 1 0-1.126.805.805 0 0 1 .568-.234h1.605c.212 0 .416.084.567.234a.793.793 0 0 1-.567 1.36Z"/>
    <path stroke="#2A343A" strokeLinecap="round" strokeLinejoin="round" strokeWidth=".75" d="M26.18 25.487h-1.604c-.422 0-.84-.096-1.23-.283a3.226 3.226 0 0 1-1.041-.806 3.805 3.805 0 0 1-.696-1.207 4.234 4.234 0 0 1-.245-1.423V19.91"/>
    <path fill="#fff" d="M61.487 71.48a5.468 5.468 0 0 0-.824-2.901 5.618 5.618 0 0 0-2.249-2.052 5.756 5.756 0 0 0-5.897.434 7.46 7.46 0 0 0-2.393-3.223 7.678 7.678 0 0 0-3.746-1.552 7.736 7.736 0 0 0-4.025.564 7.57 7.57 0 0 0-3.153 2.52 7.554 7.554 0 0 0-2.71-2.313 7.718 7.718 0 0 0-3.49-.833 7.718 7.718 0 0 0-3.49.833 7.553 7.553 0 0 0-2.71 2.312 7.57 7.57 0 0 0-3.152-2.519 7.736 7.736 0 0 0-4.025-.564 7.677 7.677 0 0 0-3.746 1.55 7.458 7.458 0 0 0-2.394 3.224 5.725 5.725 0 0 0-2.345-.964 5.774 5.774 0 0 0-2.54.138 5.696 5.696 0 0 0-2.22 1.215 5.554 5.554 0 0 0-1.456 2.044 5.455 5.455 0 0 0 .347 4.847A5.597 5.597 0 0 0 7 76.066a5.73 5.73 0 0 0 2.372.898c-.01.14-.043.274-.043.416a5.488 5.488 0 0 0 1.127 3.336 5.672 5.672 0 0 0 2.942 2.007 5.777 5.777 0 0 0 3.582-.124 5.65 5.65 0 0 0 2.79-2.205 7.268 7.268 0 0 0 2.058 3.558 7.497 7.497 0 0 0 3.687 1.915 7.588 7.588 0 0 0 4.158-.328A7.435 7.435 0 0 0 33 83.07a7.436 7.436 0 0 0 3.327 2.469 7.588 7.588 0 0 0 4.158.328 7.497 7.497 0 0 0 3.686-1.915 7.27 7.27 0 0 0 2.058-3.558 5.649 5.649 0 0 0 2.79 2.206 5.777 5.777 0 0 0 3.58.125 5.671 5.671 0 0 0 2.943-2.006 5.486 5.486 0 0 0 1.128-3.335c0-.142-.032-.276-.042-.416a5.692 5.692 0 0 0 3.473-1.856 5.487 5.487 0 0 0 1.386-3.632Z"/>
    <path fill="#C2E0D3" d="M33 90c11.744 0 21.265-.535 21.265-1.195S44.745 87.611 33 87.611c-11.745 0-21.266.534-21.266 1.194C11.734 89.465 21.255 90 33 90Z"/>
    <path stroke="#2A343A" strokeLinecap="round" strokeLinejoin="round" strokeWidth=".75" d="M61.487 71.481a5.467 5.467 0 0 0-.825-2.9 5.618 5.618 0 0 0-2.248-2.051 5.758 5.758 0 0 0-5.897.433 7.457 7.457 0 0 0-2.393-3.225 7.678 7.678 0 0 0-3.747-1.552 7.736 7.736 0 0 0-4.027.565 7.567 7.567 0 0 0-3.152 2.521 7.552 7.552 0 0 0-2.71-2.312 7.719 7.719 0 0 0-3.49-.833 7.72 7.72 0 0 0-3.49.833 7.552 7.552 0 0 0-2.71 2.312 7.568 7.568 0 0 0-3.152-2.519 7.735 7.735 0 0 0-4.025-.564 7.677 7.677 0 0 0-3.745 1.55 7.457 7.457 0 0 0-2.394 3.223 5.726 5.726 0 0 0-2.345-.964 5.773 5.773 0 0 0-2.538.139 5.695 5.695 0 0 0-2.221 1.214 5.552 5.552 0 0 0-1.456 2.044 5.453 5.453 0 0 0 .347 4.846A5.597 5.597 0 0 0 7 76.066a5.731 5.731 0 0 0 2.372.899c-.012.14-.044.273-.044.416a5.486 5.486 0 0 0 1.128 3.334 5.672 5.672 0 0 0 2.941 2.006 5.779 5.779 0 0 0 3.581-.124 5.65 5.65 0 0 0 2.79-2.203 7.268 7.268 0 0 0 2.06 3.554 7.497 7.497 0 0 0 3.684 1.913 7.59 7.59 0 0 0 4.156-.328 7.435 7.435 0 0 0 3.325-2.466 7.435 7.435 0 0 0 3.326 2.47c1.326.497 2.77.611 4.16.33a7.498 7.498 0 0 0 3.687-1.915 7.267 7.267 0 0 0 2.058-3.558 5.65 5.65 0 0 0 2.79 2.204 5.778 5.778 0 0 0 3.58.125 5.672 5.672 0 0 0 2.943-2.005 5.487 5.487 0 0 0 1.128-3.333c0-.143-.032-.277-.043-.416a5.694 5.694 0 0 0 3.476-1.854 5.487 5.487 0 0 0 1.389-3.633v0Z"/>
  </g>
  <defs>
    <clipPath id="a">
      <path fill="#fff" d="M.5 0h65v90H.5z"/>
    </clipPath>
  </defs>
</svg>
